<svg width="80" height="80" viewBox="0 0 80 80" fill="none" xmlns="http://www.w3.org/2000/svg">
<path d="M20.202 0H4.0404C1.8101 0 0 1.8101 0 4.0404V20.202C0 22.4323 1.8101 24.2424 4.0404 24.2424H20.202C22.4323 24.2424 24.2424 22.4323 24.2424 20.202V4.0404C24.2424 1.8101 22.4323 0 20.202 0Z" fill="black"/>
<path d="M20.202 27.8788H4.0404C1.8101 27.8788 0 29.6889 0 31.9192V48.0808C0 50.3111 1.8101 52.1212 4.0404 52.1212H20.202C22.4323 52.1212 24.2424 50.3111 24.2424 48.0808V31.9192C24.2424 29.6889 22.4323 27.8788 20.202 27.8788Z" fill="black"/>
<path d="M20.202 55.7576H4.0404C1.8101 55.7576 0 57.5677 0 59.798V75.9596C0 78.1899 1.8101 80 4.0404 80H20.202C22.4323 80 24.2424 78.1899 24.2424 75.9596V59.798C24.2424 57.5677 22.4323 55.7576 20.202 55.7576Z" fill="black"/>
<path d="M48.0808 0H31.9192C29.6889 0 27.8788 1.8101 27.8788 4.0404V20.202C27.8788 22.4323 29.6889 24.2424 31.9192 24.2424H48.0808C50.3111 24.2424 52.1212 22.4323 52.1212 20.202V4.0404C52.1212 1.8101 50.3111 0 48.0808 0Z" fill="black"/>
<path d="M48.0808 27.8788H31.9192C29.6889 27.8788 27.8788 29.6889 27.8788 31.9192V48.0808C27.8788 50.3111 29.6889 52.1212 31.9192 52.1212H48.0808C50.3111 52.1212 52.1212 50.3111 52.1212 48.0808V31.9192C52.1212 29.6889 50.3111 27.8788 48.0808 27.8788Z" fill="black"/>
<path d="M48.0808 55.7576H31.9192C29.6889 55.7576 27.8788 57.5677 27.8788 59.798V75.9596C27.8788 78.1899 29.6889 80 31.9192 80H48.0808C50.3111 80 52.1212 78.1899 52.1212 75.9596V59.798C52.1212 57.5677 50.3111 55.7576 48.0808 55.7576Z" fill="black"/>
<path d="M75.9596 0H59.798C57.5677 0 55.7576 1.8101 55.7576 4.0404V20.202C55.7576 22.4323 57.5677 24.2424 59.798 24.2424H75.9596C78.1899 24.2424 80 22.4323 80 20.202V4.0404C80 1.8101 78.1899 0 75.9596 0Z" fill="black"/>
<path d="M75.9596 27.8788H59.798C57.5677 27.8788 55.7576 29.6889 55.7576 31.9192V48.0808C55.7576 50.3111 57.5677 52.1212 59.798 52.1212H75.9596C78.1899 52.1212 80 50.3111 80 48.0808V31.9192C80 29.6889 78.1899 27.8788 75.9596 27.8788Z" fill="black"/>
<path d="M75.9596 55.7576H59.798C57.5677 55.7576 55.7576 57.5677 55.7576 59.798V75.9596C55.7576 78.1899 57.5677 80 59.798 80H75.9596C78.1899 80 80 78.1899 80 75.9596V59.798C80 57.5677 78.1899 55.7576 75.9596 55.7576Z" fill="black"/>
</svg>
