<svg width="76" height="73" viewBox="0 0 76 73" fill="none" xmlns="http://www.w3.org/2000/svg">
<line y1="11" x2="6" y2="11" stroke="black" stroke-width="2"/>
<line x1="5" y1="10" x2="5" y2="51" stroke="black" stroke-width="2"/>
<path d="M5.00018 51C5.0003 64 2.49997 62 46.0002 62" stroke="black" stroke-width="2"/>
<path d="M5 15H69" stroke="black" stroke-width="2"/>
<path d="M68.0006 14.5C49 60.5 63.0002 55 14.0006 55" stroke="black" stroke-width="2"/>
<path d="M15.5 68.2907C15.5 69.9476 14.1568 71.2908 12.5 71.2908C10.8432 71.2908 9.5 69.9476 9.5 68.2907C9.5 66.6339 10.8431 65.2907 12.5 65.2907C14.1569 65.2907 15.5 66.6339 15.5 68.2907ZM49 68.2907C49 69.9476 47.6569 71.2907 46 71.2907C44.3431 71.2907 43 69.9476 43 68.2907C43 66.6339 44.3431 65.2907 46 65.2907C47.6569 65.2907 49 66.6339 49 68.2907Z" stroke="black" stroke-width="2"/>
<circle cx="56.5" cy="19.5" r="18.5" fill="black" stroke="white" stroke-width="2" stroke-dasharray="4 4"/>
<path d="M56.9989 27.12C55.9189 27.12 54.9522 26.8333 54.0989 26.26C53.2589 25.6867 52.5989 24.8667 52.1189 23.8C51.6522 22.72 51.4189 21.4533 51.4189 20C51.4189 18.5467 51.6522 17.2867 52.1189 16.22C52.5989 15.14 53.2589 14.3133 54.0989 13.74C54.9522 13.1667 55.9189 12.88 56.9989 12.88C58.0789 12.88 59.0389 13.1667 59.8789 13.74C60.7322 14.3133 61.3989 15.14 61.8789 16.22C62.3589 17.2867 62.5989 18.5467 62.5989 20C62.5989 21.4533 62.3589 22.72 61.8789 23.8C61.3989 24.8667 60.7322 25.6867 59.8789 26.26C59.0389 26.8333 58.0789 27.12 56.9989 27.12ZM56.9989 25.8C57.8122 25.8 58.5256 25.5733 59.1389 25.12C59.7656 24.6667 60.2522 24.0067 60.5989 23.14C60.9456 22.2733 61.1189 21.2267 61.1189 20C61.1189 18.7733 60.9456 17.7267 60.5989 16.86C60.2522 15.9933 59.7656 15.3333 59.1389 14.88C58.5256 14.4267 57.8122 14.2 56.9989 14.2C56.1856 14.2 55.4656 14.4267 54.8389 14.88C54.2256 15.3333 53.7456 15.9933 53.3989 16.86C53.0522 17.7267 52.8789 18.7733 52.8789 20C52.8789 21.2267 53.0522 22.2733 53.3989 23.14C53.7456 24.0067 54.2256 24.6667 54.8389 25.12C55.4656 25.5733 56.1856 25.8 56.9989 25.8Z" fill="#FC7989"/>
</svg>
